<svg width="512" height="512" viewBox="0 0 512 512" fill="none" xmlns="http://www.w3.org/2000/svg">
<g id="logo">
<g id="Nevellus-logo" clip-path="url(#clip0_2_22)">
<g id="logo_2">
<g id="_1086485840">
<path id="Vector" fill-rule="evenodd" clip-rule="evenodd" d="M274.475 77.3632C270.239 73.0088 266.003 68.6545 260.952 64.7898C255.902 60.9251 250.037 57.551 243.466 54.6191C236.895 51.6872 229.618 49.1984 222.015 47.955C214.412 46.7106 206.484 46.7106 197.306 47.7915C188.128 48.8723 177.701 51.034 169.935 53.4221C162.17 55.8093 157.065 58.4218 152.231 61.7418C147.398 65.0617 142.837 69.09 138.003 75.1309C133.17 81.1727 128.066 89.2273 122.797 98.9161C117.53 108.604 112.099 119.925 105.311 134.784C98.5228 149.643 90.3771 168.04 79.6238 193.076C68.8715 218.113 55.5124 249.791 41.9737 281.848C28.435 313.907 14.7187 346.345 1.00136 378.785C36.7669 375.192 72.5315 371.601 108.297 368.008C122.146 335.405 135.993 302.803 146.339 278.637C156.685 254.47 163.527 238.74 170.397 222.766C177.267 206.791 184.163 190.572 192.364 171.521C200.564 152.47 210.068 130.59 215.742 117.827C221.417 105.063 223.263 101.416 225.083 98.0965C226.903 94.7766 228.695 91.7828 230.487 89.1431C232.279 86.5034 234.071 84.2169 236.053 82.3397C238.035 80.4615 240.207 78.9927 242.733 77.577C245.259 76.1614 248.137 74.8009 250.853 74.0123C253.568 73.2227 256.12 73.005 258.808 73.1685C261.497 73.332 264.32 73.8758 266.955 74.6383C269.588 75.4008 272.032 76.381 274.475 77.3612L274.475 77.3632Z" fill="url(#paint0_linear_2_22)"/>
<path id="Vector_2" fill-rule="evenodd" clip-rule="evenodd" d="M310.532 274.093C310.844 274.147 311.17 274.174 311.522 274.106C311.876 274.039 312.256 273.875 312.691 273.453C313.125 273.031 313.614 272.351 314.496 270.663C315.378 268.977 316.655 266.282 318.162 263.098C319.669 259.913 321.407 256.24 323.633 251.26C325.86 246.279 328.575 239.993 330.788 234.754C333.001 229.515 334.712 225.324 337.02 219.908C339.329 214.493 342.234 207.853 344.474 202.505C346.715 197.157 348.288 193.102 349.266 190.231C350.244 187.36 350.624 185.673 350.827 184.435C351.031 183.197 351.058 182.407 350.827 181.441C350.597 180.476 350.108 179.332 348.357 176.638C346.605 173.944 343.591 169.698 339.423 164.038C335.255 158.377 329.933 151.302 324.231 143.709C318.529 136.116 312.446 128.006 305.603 118.821C298.761 109.637 291.158 99.3767 285.842 92.2879C280.527 85.1991 277.5 81.2811 275.627 78.953C275.077 78.2689 274.626 77.7222 274.228 77.2635C271.866 76.3162 269.499 75.3767 266.953 74.6393C264.319 73.8768 261.495 73.333 258.806 73.1695C256.118 73.006 253.566 73.2237 250.851 74.0133C248.135 74.8019 245.257 76.1633 242.731 77.578C240.206 78.9937 238.034 80.4625 236.051 82.3407C234.069 84.2189 232.277 86.5044 230.485 89.1441C228.693 91.7838 226.902 94.7776 225.082 98.0975C223.263 101.417 221.417 105.064 215.741 117.828C213.003 123.986 209.374 132.266 205.43 141.326C205.801 141.751 206.186 142.208 206.586 142.701C208.419 144.96 210.591 147.982 213.334 151.56C216.077 155.138 219.389 159.275 223.747 164.976C228.105 170.677 233.509 177.944 238.736 184.87C243.963 191.796 249.014 198.382 255.178 206.532C261.342 214.682 268.619 224.398 274.783 232.562C280.946 240.727 285.998 247.34 290.233 252.796C294.469 258.253 297.89 262.553 300.47 265.574C303.05 268.595 304.787 270.336 305.996 271.425C307.205 272.514 307.884 272.949 308.399 273.248C308.916 273.548 309.268 273.71 309.594 273.833C309.921 273.956 310.219 274.038 310.531 274.092L310.532 274.093Z" fill="url(#paint1_linear_2_22)"/>
</g>
<g id="_1086484944">
<path id="Vector_3" fill-rule="evenodd" clip-rule="evenodd" d="M236.526 434.638C240.762 438.992 244.998 443.346 250.049 447.211C255.099 451.076 260.964 454.45 267.535 457.382C274.106 460.314 281.383 462.803 288.986 464.046C296.589 465.29 304.517 465.29 313.695 464.209C322.872 463.129 333.299 460.967 341.066 458.579C348.831 456.192 353.936 453.579 358.769 450.259C363.602 446.939 368.164 442.911 372.997 436.87C377.83 430.828 382.935 422.774 388.203 413.085C393.471 403.397 398.902 392.076 405.69 377.217C412.478 362.358 420.624 343.961 431.377 318.925C442.129 293.887 455.488 262.21 469.027 230.153C482.566 198.094 496.282 165.655 509.999 133.216C474.234 136.808 438.469 140.4 402.704 143.993C388.855 176.595 375.007 209.198 364.661 233.364C354.316 257.531 347.473 273.261 340.604 289.235C333.734 305.21 326.838 321.429 318.637 340.48C310.436 359.53 300.933 381.41 295.258 394.173C289.583 406.937 287.737 410.584 285.917 413.904C284.097 417.224 282.306 420.218 280.514 422.858C278.722 425.498 276.93 427.784 274.948 429.661C272.966 431.539 270.793 433.008 268.268 434.424C265.742 435.84 262.864 437.2 260.148 437.989C257.432 438.778 254.881 438.996 252.193 438.832C249.504 438.669 246.681 438.125 244.046 437.363C241.412 436.6 238.969 435.62 236.525 434.64L236.526 434.638Z" fill="url(#paint2_linear_2_22)"/>
<path id="Vector_4" fill-rule="evenodd" clip-rule="evenodd" d="M200.469 237.907C200.157 237.853 199.831 237.826 199.479 237.894C199.125 237.961 198.745 238.125 198.31 238.547C197.876 238.969 197.387 239.649 196.505 241.337C195.622 243.023 194.346 245.718 192.839 248.902C191.332 252.087 189.594 255.76 187.368 260.74C185.141 265.721 182.426 272.007 180.213 277.246C178 282.485 176.289 286.676 173.981 292.092C171.672 297.507 168.767 304.147 166.527 309.495C164.286 314.843 162.713 318.898 161.735 321.769C160.757 324.64 160.377 326.327 160.174 327.565C159.97 328.803 159.943 329.593 160.174 330.559C160.404 331.524 160.893 332.668 162.644 335.362C164.396 338.056 167.41 342.302 171.578 347.962C175.746 353.623 181.068 360.698 186.77 368.291C192.472 375.884 198.555 383.994 205.398 393.179C212.24 402.363 219.843 412.623 225.159 419.712C230.474 426.801 233.5 430.719 235.373 433.047C235.924 433.731 236.375 434.278 236.773 434.736C239.135 435.684 241.502 436.623 244.048 437.361C246.682 438.123 249.506 438.667 252.195 438.83C254.883 438.994 257.435 438.776 260.15 437.987C262.866 437.198 265.744 435.837 268.27 434.422C270.795 433.006 272.967 431.537 274.95 429.659C276.932 427.781 278.724 425.496 280.516 422.856C282.308 420.216 284.099 417.222 285.919 413.902C287.738 410.583 289.584 406.936 295.26 394.172C297.998 388.014 301.627 379.734 305.571 370.674C305.2 370.249 304.815 369.792 304.415 369.299C302.582 367.04 300.41 364.018 297.667 360.44C294.924 356.862 291.612 352.725 287.254 347.024C282.895 341.323 277.492 334.056 272.265 327.13C267.038 320.204 261.986 313.618 255.823 305.468C249.659 297.318 242.382 287.602 236.218 279.438C230.055 271.273 225.003 264.66 220.768 259.204C216.532 253.747 213.111 249.447 210.531 246.426C207.951 243.405 206.214 241.664 205.005 240.575C203.796 239.486 203.117 239.051 202.602 238.752C202.085 238.452 201.733 238.289 201.407 238.167C201.08 238.044 200.782 237.962 200.47 237.908L200.469 237.907Z" fill="url(#paint3_linear_2_22)"/>
</g>
</g>
</g>
</g>
<defs>
<linearGradient id="paint0_linear_2_22" x1="209.669" y1="47" x2="47.4883" y2="373.769" gradientUnits="userSpaceOnUse">
<stop stop-color="#ADF1CC"/>
<stop offset="0.490196" stop-color="#87B6B7"/>
<stop offset="1" stop-color="#617AA1"/>
</linearGradient>
<linearGradient id="paint1_linear_2_22" x1="333.897" y1="227.329" x2="224.799" y2="98.3395" gradientUnits="userSpaceOnUse">
<stop stop-color="#ADF1CC"/>
<stop offset="0.411765" stop-color="#87B6B7"/>
<stop offset="1" stop-color="#617AA1"/>
</linearGradient>
<linearGradient id="paint2_linear_2_22" x1="301.331" y1="465" x2="463.512" y2="138.231" gradientUnits="userSpaceOnUse">
<stop stop-color="#ADF1CC"/>
<stop offset="0.478431" stop-color="#83B3B4"/>
<stop offset="1" stop-color="#59749C"/>
</linearGradient>
<linearGradient id="paint3_linear_2_22" x1="288.476" y1="262.833" x2="179.377" y2="391.823" gradientUnits="userSpaceOnUse">
<stop stop-color="#ADF1CC"/>
<stop offset="0.360784" stop-color="#83B3B4"/>
<stop offset="1" stop-color="#59749C"/>
</linearGradient>
<clipPath id="clip0_2_22">
<rect width="509" height="418" fill="white" transform="translate(1 47)"/>
</clipPath>
</defs>
</svg>
